<?xml version="1.0" encoding="UTF-8"?>
<svg id="Layer_1" xmlns="http://www.w3.org/2000/svg" version="1.1" viewBox="0 0 105 40">
  <!-- Generator: Adobe Illustrator 29.0.1, SVG Export Plug-In . SVG Version: 2.1.0 Build 192)  -->
  <defs>
    <style>
      .st0 {
        fill: #bccf00;
      }

      .st1 {
        fill: #5f4f52;
      }

      .st2 {
        fill: #005492;
      }
    </style>
  </defs>
  <g>
    <path class="st1" d="M36.1,15.7h1.8l2.5,7.3h-1.9l-.5-1.5h-4.4l-1.1,1.5h-1.9l5.6-7.3ZM36.6,17.3l-2.1,2.9h3.1l-.9-2.9Z"/>
    <path class="st1" d="M42.1,15.7h1.9l3.1,5.1,1.1-5.1h1.8l-1.5,7.3h-1.9l-3.1-5.1-1.1,5.1h-1.8l1.5-7.3Z"/>
    <path class="st1" d="M54.2,15.7h1.8l2.5,7.3h-1.9l-.5-1.5h-4.4l-1.1,1.5h-1.9l5.6-7.3ZM54.7,17.3l-2.1,2.9h3.1l-.9-2.9Z"/>
    <path class="st1" d="M60.2,15.7h1.8l-.6,2.8h4.3l.6-2.8h1.8l-1.5,7.3h-1.8l.6-3h-4.3l-.6,3h-1.8l1.5-7.3Z"/>
    <path class="st1" d="M68.9,15.7h1.8l-1.5,7.3h-1.8l1.5-7.3Z"/>
    <path class="st1" d="M73.4,15.7h4.1c.5,0,.9.2,1.2.5.3.4.4.8.3,1.3v.6h-1.9v-.2c0-.2,0-.3,0-.5,0-.1-.2-.2-.4-.2h-3c-.2,0-.3,0-.5.2-.1.1-.2.2-.2.4v.2c0,.1,0,.2.2.3.2,0,.5.1.8.2.4,0,.7,0,1.2.1.4,0,.9.1,1.3.2.4,0,.8.2,1.1.3.3.1.6.3.8.5.2.2.2.5.2.8l-.2.7c-.1.5-.4.9-.8,1.3-.4.4-.9.5-1.4.5h-4.3c-.5,0-.9-.2-1.2-.5-.3-.4-.4-.8-.3-1.3v-.6h1.9v.2c0,.2,0,.3,0,.5,0,.1.2.2.4.2h3.2c.2,0,.3,0,.5-.2.1-.1.2-.2.3-.4v-.2c0-.1,0-.2-.2-.3-.2,0-.5-.1-.8-.2-.4,0-.7,0-1.2-.1-.4,0-.9,0-1.3-.2-.4,0-.8-.2-1.1-.3-.3-.1-.6-.3-.8-.5-.2-.2-.2-.5-.2-.8l.2-.7c.1-.5.4-.9.8-1.3.4-.4.9-.5,1.4-.5Z"/>
    <path class="st1" d="M81.9,15.7h4.2c.5,0,.9.2,1.2.5.3.4.4.8.3,1.3l-.8,3.6c-.1.5-.4.9-.8,1.3-.4.4-.9.5-1.4.5h-4.2c-.5,0-.9-.2-1.2-.5-.3-.4-.4-.8-.3-1.3l.8-3.6c.1-.5.4-.9.8-1.3.4-.4.9-.5,1.4-.5ZM82.1,17.2c-.2,0-.3,0-.5.2-.1.1-.2.3-.3.5l-.6,2.9c0,.2,0,.3,0,.5s.2.2.4.2h3.1c.2,0,.3,0,.5-.2.1-.1.2-.3.3-.5l.6-2.9c0-.2,0-.3,0-.5,0-.1-.2-.2-.4-.2h-3.1Z"/>
    <path class="st1" d="M88.5,15.7h6.8l-.3,1.5h-5l-.3,1.6h4.8l-.3,1.5h-4.8l-.6,2.7h-1.8l1.5-7.3Z"/>
    <path class="st1" d="M95.8,15.7h7.8l-.3,1.5h-3.1l-1.2,5.8h-1.8l1.2-5.8h-3l.3-1.5Z"/>
  </g>
  <g>
    <path d="M71.8,27h-1.3l-.4.8h-.6l1.9-3.5h.5l.7,3.5h-.6v-.8ZM70.8,26.5h1l-.2-1.4-.7,1.4Z"/>
    <path d="M75.6,26.6c0,.4-.2.6-.5.9s-.6.3-1,.3c-.2,0-.4,0-.6-.2-.2,0-.3-.2-.4-.4,0-.2-.1-.4-.2-.6,0-.2,0-.4,0-.7,0-.3.2-.6.3-.8.2-.2.3-.4.6-.6.2-.1.5-.2.7-.2.3,0,.6.1.8.3.2.2.3.5.3.9h-.6c0-.2,0-.4-.2-.5,0-.1-.2-.2-.4-.2-.3,0-.5,0-.6.3-.2.2-.3.5-.4.8v.3s0,.2,0,.2c0,.2,0,.3,0,.5s0,.3.2.3.2.1.3.1c.4,0,.7-.2.8-.7h.6Z"/>
    <path d="M78.7,26.6c0,.4-.2.6-.5.9s-.6.3-1,.3c-.2,0-.4,0-.6-.2-.2,0-.3-.2-.4-.4,0-.2-.1-.4-.2-.6,0-.2,0-.4,0-.7,0-.3.2-.6.3-.8.2-.2.3-.4.6-.6.2-.1.5-.2.7-.2.3,0,.6.1.8.3.2.2.3.5.3.9h-.6c0-.2,0-.4-.2-.5,0-.1-.2-.2-.4-.2-.3,0-.5,0-.6.3-.2.2-.3.5-.4.8v.3s0,.2,0,.2c0,.2,0,.3,0,.5s0,.3.2.3.2.1.3.1c.4,0,.7-.2.8-.7h.6Z"/>
    <path d="M80.4,27.8c-.2,0-.4,0-.6-.2-.2-.1-.3-.3-.4-.4,0-.2-.1-.4-.2-.7,0-.2,0-.4,0-.7,0-.3.1-.5.2-.7.1-.2.3-.4.4-.5.3-.2.6-.3.9-.3.3,0,.6.1.8.4.2.2.3.5.3.9,0,.2,0,.4,0,.7,0,.3-.1.5-.2.7-.1.2-.2.4-.4.5-.3.2-.6.4-1,.4ZM81.5,26v-.3c0-.2,0-.3,0-.5,0-.1-.1-.3-.2-.3,0,0-.2-.1-.4-.1-.2,0-.4,0-.5.2s-.3.3-.4.5c0,.2-.2.5-.2.9,0,.3,0,.5.1.7.1.2.3.3.5.3.3,0,.5,0,.7-.3.2-.2.3-.5.4-.9v-.2Z"/>
    <path d="M85.4,24.3l-.4,2.3c0,.4-.2.7-.5.9-.3.2-.6.3-1,.3-.3,0-.6-.1-.8-.3-.2-.2-.3-.5-.3-.8h0c0,0,.4-2.4.4-2.4h.6l-.4,2.3c0,.2,0,.4,0,.5,0,.1.2.2.4.2.2,0,.4,0,.5-.2.1-.1.2-.3.3-.5l.4-2.3h.6Z"/>
    <path d="M88.1,27.8h-.6l-1.1-2.5-.4,2.5h-.6l.6-3.5h.6l1.1,2.5.4-2.5h.6l-.6,3.5Z"/>
    <path d="M91.7,24.8h-1l-.5,3h-.6l.5-3h-1v-.5h2.7v.5Z"/>
    <path d="M92.3,27.8h-.6l.6-3.5h.6l-.6,3.5Z"/>
    <path d="M95.7,27.8h-.6l-1.1-2.5-.4,2.5h-.6l.6-3.5h.6l1.1,2.5.4-2.5h.6l-.6,3.5Z"/>
    <path d="M99.1,27.3c-.1.2-.3.3-.5.4-.2,0-.5.1-.8.1-.2,0-.4,0-.6-.2-.2-.1-.3-.2-.4-.4-.1-.2-.2-.4-.2-.7,0-.2,0-.4,0-.7,0-.3.1-.6.3-.8.1-.2.3-.4.5-.5.3-.2.5-.3.9-.3.3,0,.6.1.8.3.2.2.3.5.3.8h-.6c0-.4-.2-.6-.6-.6-.3,0-.5,0-.7.3-.2.2-.3.5-.4.9,0,.2,0,.4,0,.5,0,.3,0,.5.2.7.1.2.3.2.5.2.3,0,.5,0,.7-.2v-.7c.1,0-.6,0-.6,0v-.5h1.4l-.2,1.3Z"/>
  </g>
  <g>
    <path class="st2" d="M22.6,29.5h-5l-7.5-16.2c-.6-1.3.3-2.8,1.8-2.8h5l7.5,16.2c.6,1.3-.3,2.8-1.8,2.8Z"/>
    <path class="st2" d="M3.3,29.5h5s3.9-8.4,3.9-8.4H4.2s-2.6,5.6-2.6,5.6c-.6,1.3.3,2.8,1.8,2.8Z"/>
    <path class="st0" d="M30.5,18.9h-8l-3.9-8.4h6.8c.8,0,1.4.4,1.8,1.1l3.3,7.3Z"/>
  </g>
</svg>