<?xml version="1.0" encoding="UTF-8"?>
<svg id="Layer_1" xmlns="http://www.w3.org/2000/svg" version="1.1" viewBox="0 0 105 40">
  <!-- Generator: Adobe Illustrator 29.0.1, SVG Export Plug-In . SVG Version: 2.1.0 Build 192)  -->
  <defs>
    <style>
      .st0 {
        fill: #fff;
      }
    </style>
  </defs>
  <g>
    <path class="st0" d="M36.4,15.8h1.7l2.4,7.1h-1.9l-.4-1.4h-4.3l-1.1,1.4h-1.9l5.4-7.1ZM37,17.4l-2.1,2.8h3l-.9-2.8Z"/>
    <path class="st0" d="M42.3,15.8h1.9l3,5,1.1-5h1.7l-1.5,7.1h-1.9l-3-5-1.1,5h-1.7l1.5-7.1Z"/>
    <path class="st0" d="M54.1,15.8h1.7l2.4,7.1h-1.9l-.4-1.4h-4.3l-1.1,1.4h-1.9l5.4-7.1ZM54.7,17.4l-2.1,2.8h3l-.9-2.8Z"/>
    <path class="st0" d="M60,15.8h1.7l-.6,2.8h4.2l.6-2.8h1.7l-1.5,7.1h-1.7l.6-2.9h-4.2l-.6,2.9h-1.7l1.5-7.1Z"/>
    <path class="st0" d="M68.5,15.8h1.7l-1.5,7.1h-1.7l1.5-7.1Z"/>
    <path class="st0" d="M72.9,15.8h4c.5,0,.9.2,1.2.5.3.4.4.8.3,1.3v.6h-1.8v-.2c0-.2,0-.3,0-.4,0-.1-.2-.2-.4-.2h-3c-.2,0-.3,0-.4.1-.1,0-.2.2-.2.4v.2c0,.1,0,.2.2.3.2,0,.5.1.8.2.3,0,.7,0,1.2.1.4,0,.8,0,1.2.2.4,0,.8.2,1.1.3.3.1.6.3.8.5.2.2.2.5.2.8l-.2.7c-.1.5-.4.9-.8,1.3-.4.4-.9.5-1.4.5h-4.2c-.5,0-.9-.2-1.2-.5-.3-.4-.4-.8-.3-1.3v-.6h1.8v.2c0,.2,0,.3,0,.4,0,.1.2.2.4.2h3.1c.2,0,.3,0,.4-.1.1,0,.2-.2.3-.4v-.2c0-.1,0-.2-.2-.3-.2,0-.5-.1-.8-.2-.3,0-.7,0-1.2-.1-.4,0-.8,0-1.3-.2-.4,0-.8-.2-1.1-.3-.3-.1-.6-.3-.8-.5-.2-.2-.2-.5-.2-.8l.2-.7c.1-.5.4-.9.8-1.3.4-.4.9-.5,1.4-.5Z"/>
    <path class="st0" d="M81.2,15.8h4.1c.5,0,.9.2,1.2.5.3.4.4.8.3,1.3l-.8,3.5c-.1.5-.4.9-.8,1.3-.4.4-.9.5-1.4.5h-4.1c-.5,0-.9-.2-1.2-.5-.3-.4-.4-.8-.3-1.3l.8-3.5c.1-.5.4-.9.8-1.3.4-.4.9-.5,1.4-.5ZM81.4,17.3c-.2,0-.3,0-.5.2-.1.1-.2.3-.3.4l-.6,2.8c0,.2,0,.3,0,.4s.2.2.4.2h3c.2,0,.3,0,.5-.2.1-.1.2-.3.3-.4l.6-2.8c0-.2,0-.3,0-.4,0-.1-.2-.2-.4-.2h-3Z"/>
    <path class="st0" d="M87.7,15.8h6.6l-.3,1.5h-4.9l-.3,1.6h4.6l-.3,1.5h-4.6l-.6,2.6h-1.7l1.5-7.1Z"/>
    <path class="st0" d="M94.7,15.8h7.7l-.3,1.5h-3l-1.2,5.7h-1.7l1.2-5.7h-3l.3-1.5Z"/>
  </g>
  <g>
    <path class="st0" d="M71.4,26.8h-1.3l-.4.8h-.6l1.8-3.4h.5l.7,3.4h-.6v-.8ZM70.3,26.3h.9l-.2-1.4-.7,1.4Z"/>
    <path class="st0" d="M75.1,26.5c0,.4-.2.6-.5.8s-.6.3-.9.3c-.2,0-.4,0-.6-.2-.2,0-.3-.2-.4-.4,0-.2-.1-.4-.2-.6,0-.2,0-.4,0-.7,0-.3.2-.6.3-.8.1-.2.3-.4.5-.5.2-.1.5-.2.7-.2.3,0,.6.1.8.3.2.2.3.5.3.8h-.6c0-.2,0-.4-.2-.5,0-.1-.2-.2-.4-.2-.3,0-.5,0-.6.3-.2.2-.3.5-.3.8v.3s0,.2,0,.2c0,.2,0,.3,0,.4s0,.2.2.3.2.1.3.1c.4,0,.7-.2.8-.7h.6Z"/>
    <path class="st0" d="M78.1,26.5c0,.4-.2.6-.5.8s-.6.3-.9.3c-.2,0-.4,0-.6-.2-.2,0-.3-.2-.4-.4,0-.2-.1-.4-.2-.6,0-.2,0-.4,0-.7,0-.3.2-.6.3-.8.1-.2.3-.4.5-.5.2-.1.5-.2.7-.2.3,0,.6.1.8.3.2.2.3.5.3.8h-.6c0-.2,0-.4-.2-.5,0-.1-.2-.2-.4-.2-.3,0-.5,0-.6.3-.2.2-.3.5-.3.8v.3s0,.2,0,.2c0,.2,0,.3,0,.4s0,.2.2.3.2.1.3.1c.4,0,.7-.2.8-.7h.6Z"/>
    <path class="st0" d="M79.8,27.6c-.2,0-.4,0-.6-.2-.2-.1-.3-.2-.4-.4,0-.2-.1-.4-.2-.6,0-.2,0-.4,0-.7,0-.3.1-.5.2-.7.1-.2.3-.4.4-.5.3-.2.6-.3.9-.3.3,0,.6.1.8.3.2.2.3.5.3.9,0,.2,0,.4,0,.7,0,.2-.1.5-.2.7-.1.2-.2.4-.4.5-.3.2-.6.4-1,.3ZM80.8,25.8v-.2c0-.2,0-.3,0-.5,0-.1-.1-.3-.2-.3,0,0-.2-.1-.3-.1-.2,0-.4,0-.5.2s-.3.3-.4.5c0,.2-.1.5-.2.9,0,.3,0,.5.1.7.1.2.3.2.5.3.3,0,.5,0,.7-.3.2-.2.3-.5.3-.9v-.2Z"/>
    <path class="st0" d="M84.7,24.2l-.4,2.3c0,.4-.2.6-.5.9-.3.2-.6.3-.9.3-.3,0-.6-.1-.8-.3-.2-.2-.3-.5-.3-.8h0c0,0,.4-2.3.4-2.3h.6l-.4,2.3c0,.2,0,.4,0,.5,0,.1.2.2.4.2.2,0,.4,0,.5-.2.1-.1.2-.3.3-.5l.4-2.3h.6Z"/>
    <path class="st0" d="M87.3,27.6h-.6l-1.1-2.4-.4,2.4h-.6l.6-3.4h.6l1.1,2.4.4-2.4h.6l-.6,3.4Z"/>
    <path class="st0" d="M90.8,24.7h-1l-.5,2.9h-.6l.5-2.9h-1v-.5h2.7v.5Z"/>
    <path class="st0" d="M91.3,27.6h-.6l.6-3.4h.6l-.6,3.4Z"/>
    <path class="st0" d="M94.7,27.6h-.6l-1.1-2.4-.4,2.4h-.6l.6-3.4h.6l1.1,2.4.4-2.4h.6l-.6,3.4Z"/>
    <path class="st0" d="M98,27.2c-.1.2-.3.3-.5.4-.2,0-.5.1-.8.1-.2,0-.4,0-.6-.1-.2,0-.3-.2-.4-.4,0-.2-.2-.4-.2-.6,0-.2,0-.4,0-.7,0-.3.1-.5.3-.8.1-.2.3-.4.5-.5.2-.2.5-.3.8-.2.3,0,.6.1.8.3.2.2.3.5.3.8h-.6c0-.4-.2-.6-.6-.6-.3,0-.5,0-.6.3-.2.2-.3.5-.3.8,0,.2,0,.4,0,.5,0,.3,0,.5.2.7.1.2.3.2.5.2.3,0,.5,0,.7-.2v-.7c.1,0-.6,0-.6,0v-.4h1.3l-.2,1.3Z"/>
  </g>
  <g>
    <path class="st0" d="M23.3,29.3h-4.9l-7.3-15.9c-.6-1.3.3-2.7,1.7-2.7h4.9l7.3,15.9c.6,1.3-.3,2.7-1.7,2.7Z"/>
    <path class="st0" d="M4.5,29.3h4.9s3.8-8.2,3.8-8.2h-7.9s-2.5,5.5-2.5,5.5c-.6,1.3.3,2.7,1.7,2.7Z"/>
    <path class="st0" d="M31,18.9h-7.9l-3.8-8.2h6.6c.7,0,1.4.4,1.7,1.1l3.3,7.1Z"/>
  </g>
</svg>